<svg data-v-e441ca2c="" xmlns="http://www.w3.org/2000/svg" width="124" height="80" viewBox="0 0 124 80" fill="none"><g data-v-e441ca2c="" clip-path="url(#clip0_179_286)"><path data-v-e441ca2c="" d="M122.715 79.5486C123.957 78.6649 124.265 76.4988 123.786 74.8686C122.583 70.7828 116.845 71.4522 112.933 68.4043C102.462 60.2495 107.99 27.7509 111.777 18.0355C111.777 18.0355 114.213 11.3154 112.437 9.15307C112.126 8.77326 111.658 8.52506 111.007 8.36148C108.248 7.67142 107.658 9.50656 104.414 19.6995C101.567 28.6459 94.0037 52.3975 88.3594 52.3975H88.3464C85.2958 52.3749 81.8052 43.4098 79.2544 36.8645C75.6072 27.4951 72.1297 18.718 66.0528 18.7838C59.4017 18.9324 55.7861 29.7101 51.9599 41.1215C50.1177 46.6138 46.6905 56.8368 44.6599 57.1132C43.7052 56.6469 42.2843 51.8917 41.2476 48.4169C36.4443 32.3274 31.3986 24.4265 25.0048 16.362C17.783 7.25399 6.13095 -2.23011 1.79754 0.462447C0.395332 1.33301 -0.0987856 3.39191 0.0149534 4.91493C0.503486 11.4 12.2563 10.8416 21.4918 19.6055C24.3223 22.2924 30.9362 30.5186 36.6886 49.8008C38.8292 56.9759 40.2426 61.7161 44.4492 61.9079C49.9107 62.2294 52.8158 53.5539 56.4705 42.6577C59.0082 35.0914 62.8438 23.6575 66.1591 23.5842C66.1684 23.5842 66.1777 23.5842 66.1871 23.5842C68.9691 23.5842 72.4895 32.6264 74.8222 38.6188C78.5328 48.1499 82.0402 57.1546 88.3109 57.1997H88.3557C94.3896 57.1997 99.2452 48.4489 103.737 36.5017C102.59 44.081 100.204 65.4015 111.343 74.8066C111.977 75.3425 119.652 81.7241 122.713 79.5468L122.715 79.5486Z" fill="url(#paint0_linear_179_286)"/></g> <defs data-v-e441ca2c=""><linearGradient data-v-e441ca2c="" id="paint0_linear_179_286" x1="1.51377e-05" y1="-1.48722e-05" x2="98" y2="80" gradientUnits="userSpaceOnUse"><stop data-v-e441ca2c="" stop-color="#29ABE2"/> <stop data-v-e441ca2c="" offset="1" stop-color="#29ABE2" stop-opacity="0"/></linearGradient> <clipPath data-v-e441ca2c="" id="clip0_179_286"><rect data-v-e441ca2c="" width="124" height="80" fill="white" transform="matrix(-1 0 0 1 124 0)"/></clipPath></defs></svg>