<svg data-v-66eb24b6="" xmlns="http://www.w3.org/2000/svg" width="200" height="64" viewBox="0 0 200 64" fill="none"><a data-v-66eb24b6="" href="https://www.canva.com/" target="_blank" rel="noopener"><mask data-v-66eb24b6="" id="mask0_716_343" maskUnits="userSpaceOnUse" x="0" y="0" width="200" height="64" style="mask-type: luminance;"><path data-v-66eb24b6="" d="M198.25 43.6827C198 43.6827 197.5 43.9327 197.5 44.4327C195.504 50.1748 192.758 53.6708 190.508 53.6708C189.258 53.6708 188.762 52.1709 188.762 49.9248C188.762 44.1827 192.258 31.9486 194.004 26.4565C194.254 25.7065 194.254 25.2065 194.254 24.7105C194.254 23.2105 193.254 22.2144 191.258 22.2144C189.012 22.2144 186.266 23.2144 184.016 27.4565C183.266 23.7105 180.52 21.9644 177.024 21.9644C172.778 21.9644 168.786 24.7105 165.54 28.9565C162.294 33.2025 158.298 34.6985 155.552 33.9486C157.548 28.7065 158.548 24.9605 158.548 22.2144C158.548 17.7184 156.302 14.9724 152.806 14.9724C147.314 14.9724 144.317 20.2145 144.317 25.7104C144.317 29.9564 146.314 34.1986 150.31 36.4485C146.814 44.4366 141.571 51.6787 139.821 51.6787C137.325 51.6787 136.575 39.4445 136.825 30.4564C136.825 25.4643 137.325 25.2144 137.325 23.7144C137.325 22.7144 136.825 22.2144 134.579 22.2144C129.337 22.2144 127.587 26.7104 127.337 31.9525C127.337 33.9486 126.837 35.9485 126.337 37.6946C124.091 45.6827 119.595 51.6787 116.599 51.6787C115.099 51.6787 114.853 50.1787 114.853 48.4327C114.853 42.6906 118.099 35.4485 118.099 29.4565C118.099 24.9605 116.103 22.2144 112.357 22.2144C108.111 22.2144 102.119 27.4565 96.877 37.1946C98.6231 29.7025 99.3731 22.4644 94.131 22.4644C92.881 22.4644 91.8849 22.7144 90.8849 23.2144C90.135 23.4644 89.635 24.2144 89.885 24.9605C90.385 32.9486 83.3929 53.1747 76.9008 53.1747C75.6509 53.1747 75.1548 51.9248 75.1548 49.9287C75.1548 44.1866 78.6508 32.2025 80.3969 26.4604C80.6469 25.7104 80.6469 25.2104 80.6469 24.4644C80.6469 22.9644 79.6469 22.2183 77.6508 22.2183C75.4048 22.2183 72.6587 23.2183 70.4088 27.4604C69.6588 23.7144 66.9128 21.9683 63.4167 21.9683C57.4247 21.9683 50.9326 28.2104 48.1866 36.1985C44.4405 46.9366 36.4524 57.4208 25.9643 57.4208C16.4762 57.4208 11.4842 49.4326 11.4842 36.9485C10.2342 19.2223 23.4683 4.4882 33.2064 4.4882C37.9485 4.4882 40.1984 7.48423 40.1984 11.9802C40.1984 17.4723 37.2024 20.2184 37.2024 22.2183C37.2024 22.9683 37.7024 23.4683 38.7024 23.4683C42.9484 23.4683 47.9405 18.4762 47.9405 11.4842C47.9405 4.4921 42.4484 6.34173e-06 32.7103 6.34173e-06C16.4801 -0.0117122 0 16.2184 0 37.1907C0 53.9208 8.23812 63.905 22.4722 63.905C32.2103 63.905 40.6984 56.413 45.1944 47.4249C45.6944 54.6669 48.9405 58.659 54.1825 58.659C58.6785 58.659 62.4207 55.913 65.1667 51.167C66.1667 56.1591 69.1627 58.409 72.6587 58.409C76.9047 58.409 80.4008 55.663 83.8929 50.667C83.8929 54.663 84.6429 58.159 88.1389 58.159C89.6389 58.159 91.6349 57.909 91.8849 56.413C95.381 41.6828 104.369 29.6986 106.865 29.6986C107.615 29.6986 107.865 30.4486 107.865 31.4447C107.865 35.4407 105.119 43.6788 105.119 48.9209C105.119 54.663 107.615 58.409 112.611 58.409C118.103 58.409 123.845 51.667 127.341 41.6789C128.591 50.917 131.087 58.409 135.083 58.409C139.825 58.409 148.567 48.1709 153.809 37.4368C155.806 37.6868 159.052 37.6868 161.798 35.4407C160.548 38.6867 159.802 42.1828 159.802 45.6788C159.802 55.6669 164.544 58.4129 168.79 58.4129C173.286 58.4129 177.028 55.6669 179.774 50.9209C180.774 55.1669 183.02 58.1629 187.266 58.1629C194.008 58.1629 200 51.1709 200 45.6788C199.746 44.6827 198.996 43.6827 198.25 43.6827ZM58.1746 53.1708C55.4286 53.1708 54.4286 50.4248 54.4286 46.4288C54.4286 39.4367 59.1707 27.4526 64.4167 27.4526C66.6628 27.4526 67.4128 30.1986 67.4128 33.4447C67.4128 40.4367 62.9206 53.1708 58.1746 53.1708ZM151.556 31.9486C149.81 29.9525 149.31 27.4526 149.31 24.9565C149.31 21.9605 150.31 19.7145 151.556 19.7145C152.806 19.7145 153.302 20.9644 153.302 22.7105C153.306 25.4565 152.306 29.7025 151.556 31.9486ZM172.782 53.1708C170.036 53.1708 169.036 49.9248 169.036 46.4288C169.036 39.6867 173.778 27.4526 179.024 27.4526C181.27 27.4526 182.02 30.1986 182.02 33.4447C182.02 40.4367 177.524 53.1708 172.782 53.1708Z" fill="white"/></mask> <g data-v-66eb24b6="" mask="url(#mask0_716_343)"><path data-v-66eb24b6="" d="M200.496 -3.50757H-0.75V67.1512H200.496V-3.50757Z" fill="#EAF2FB"/></g></a></svg>