<svg data-v-66eb24b6="" xmlns="http://www.w3.org/2000/svg" width="200" height="53" viewBox="0 0 200 53" fill="none"><a data-v-66eb24b6="" href="https://www.forbes.com/sites/bernardmarr/2023/02/28/beyond-chatgpt-14-mind-blowing-ai-tools-everyone-should-be-trying-out-now/?sh=3708f0bc7a1b" target="_blank" rel="noopener"><g data-v-66eb24b6="" clip-path="url(#clip0_716_341)"><path data-v-66eb24b6="" d="M19.2544 4.93837H23.6356C26.3038 4.54067 29.0286 4.89033 31.5142 5.94938C34.6325 7.84756 36.8943 10.9035 37.817 14.4652C38.4704 16.3316 38.4704 16.3316 40.0461 15.6706H41.2759V0.894351H0.0383955V3.49963H1.7294C2.46424 3.49448 3.19088 3.65597 3.85595 3.97224C4.52101 4.2885 5.10759 4.7515 5.5726 5.32722C7.14831 7.89362 7.41733 10.7711 7.41733 25.7417C7.41733 41.6456 7.07145 45.5341 5.5726 47.5172C5.20258 48.0271 4.72351 48.4457 4.17116 48.742C3.61882 49.0383 3.00746 49.2045 2.38275 49.2282C0.0383956 49.6559 0.0383955 49.617 0.0383955 50.6669C-0.091249 51.018 -0.091249 51.4046 0.0383955 51.7557H26.0568C26.229 51.4122 26.3188 51.0326 26.3188 50.6475C26.3188 50.2624 26.229 49.8827 26.0568 49.5393C25.4267 49.3619 24.7844 49.2319 24.1352 49.1504C23.433 49.0659 22.7389 48.9228 22.0599 48.7227C21.0876 48.0045 20.3174 47.042 19.8254 45.9305C19.3334 44.8189 19.1365 43.5966 19.2544 42.3844C18.8701 39.818 18.6779 35.113 18.6779 31.2245V28.1526H20.2152C22.1305 28.0933 24.0446 28.3027 25.9031 28.7748C26.7935 29.3314 27.5514 30.0801 28.1227 30.9674C28.694 31.8547 29.0647 32.8586 29.2083 33.9076L29.5542 35.113H31.8985V17.887H29.7463L29.4004 19.5591C29.2549 20.6318 28.8627 21.655 28.2553 22.5464C27.6479 23.4379 26.8422 24.1727 25.9031 24.6919C24.9936 24.9657 24.0355 25.0321 23.0976 24.8863H18.6779V20.6867C18.6779 16.3316 18.9085 7.15481 19.0622 5.71607L19.2544 4.93837ZM199.116 35.774C197.299 32.8157 194.466 30.6414 191.161 29.6691C188.627 28.8677 186.284 27.5437 184.281 25.7806C183.831 25.3395 183.493 24.7936 183.299 24.1903C183.105 23.5871 183.059 22.945 183.167 22.3199C183.17 21.0938 183.654 19.919 184.512 19.0536C185.094 18.4371 185.83 17.9921 186.642 17.7661C187.455 17.54 188.312 17.5415 189.124 17.7704C190.804 18.2548 192.323 19.1901 193.521 20.477C194.718 21.764 195.549 23.3547 195.926 25.0807C196.541 26.8305 196.618 26.8305 197.732 26.3639L198.424 26.0917V16.4094L197.925 16.1761C194.141 14.8316 190.128 14.276 186.126 14.5429C182.68 14.6313 179.391 16.0179 176.902 18.4314C175.774 19.5003 174.89 20.8059 174.312 22.2567C173.735 23.7076 173.478 25.2686 173.559 26.8305C173.58 29.2185 174.517 31.5048 176.172 33.2076C178.001 35.0274 180.245 36.363 182.706 37.0961C188.663 39.4681 190.392 40.9846 190.392 43.7454C190.418 44.9097 190.051 46.0481 189.353 46.9738C188.654 47.8994 187.665 48.5573 186.549 48.8393C185.207 49.1376 183.817 49.1376 182.475 48.8393C180.718 48.1494 179.149 47.0449 177.899 45.6178C176.649 44.1908 175.754 42.4823 175.288 40.6346L174.789 39.3903H174.097C173.766 39.4152 173.442 39.494 173.136 39.6236H172.752V50.6669H173.405C176.001 51.5408 178.68 52.1403 181.399 52.4556H185.242C186.909 52.5794 188.584 52.4217 190.2 51.989C192.251 51.606 194.167 50.6867 195.758 49.3224C197.349 47.9581 198.56 46.1963 199.27 44.212C199.728 43.1037 199.964 41.9139 199.962 40.7124C200.113 39.0197 199.821 37.3165 199.116 35.774ZM162.913 15.6706C160.61 14.6923 158.129 14.2177 155.632 14.278C153.135 14.3383 150.678 14.9322 148.424 16.0205C146.305 17.0692 144.427 18.5558 142.911 20.3842C141.395 22.2127 140.275 24.3425 139.623 26.6361C138.792 29.1381 138.44 31.7776 138.586 34.4131C138.558 35.847 138.674 37.2801 138.932 38.6904C139.552 42.1582 141.207 45.3507 143.673 47.8392C146.14 50.3277 149.3 51.9929 152.729 52.6112C154.962 52.8958 157.221 52.8958 159.454 52.6112C161.771 52.1979 163.989 51.34 165.988 50.0836C167.641 49.1459 169.04 47.8104 170.061 46.1952C169.996 45.9417 169.88 45.7043 169.722 45.4972C169.563 45.29 169.365 45.1174 169.139 44.9897C168.7 45.1504 168.286 45.373 167.909 45.6508C165.998 46.9254 163.74 47.5644 161.453 47.4784C159.934 47.5822 158.412 47.343 156.996 46.7781C155.58 46.2131 154.306 45.3366 153.267 44.212C152.462 43.4562 151.799 42.5607 151.307 41.5679C150.112 39.1505 149.469 36.493 149.423 33.7909V32.2744H170.715V31.4967C170.762 30.7197 170.762 29.9406 170.715 29.1636C170.707 26.418 169.981 23.7233 168.611 21.3534C167.241 18.9835 165.275 17.0228 162.913 15.6706ZM152.191 29.1247H149.5V26.8305C150.384 20.9589 152.575 17.4593 155.265 17.4593C157.955 17.4593 159.108 20.92 159.608 27.2583V29.047H157.302L152.191 29.1247ZM96.9254 14.3874C95.5974 14.3353 94.2773 14.6158 93.0822 15.204C90.4847 16.4803 88.3867 18.603 87.1253 21.2311L86.6256 22.1643V14.3874H86.4335C85.9723 14.3874 71.7525 17.2649 71.2913 17.4593C70.8301 17.6537 70.9838 17.6926 70.9838 18.3925C70.9838 19.0924 70.9838 19.2091 71.2913 19.248L72.7901 19.5591C73.2099 19.5695 73.6219 19.6764 73.9947 19.8718C74.3676 20.0672 74.6917 20.3459 74.9423 20.6867C75.9031 21.9699 76.0953 24.2252 76.0953 33.8298C76.2851 38.1536 76.1051 42.486 75.5572 46.7784C75.4283 47.4257 75.1039 48.0164 74.6289 48.4692C74.1539 48.9219 73.5517 49.2143 72.9054 49.3059L71.5987 49.5781H71.0991V50.6669C70.9597 51.0296 70.9597 51.4319 71.0991 51.7946H92.5826V50.6669C92.6571 50.2948 92.6571 49.9114 92.5826 49.5393C91.2891 49.4882 90.0028 49.3191 88.7394 49.0337C88.0514 48.6696 87.4885 48.1032 87.1249 47.4091C86.7614 46.715 86.6141 45.9257 86.7025 45.1453C86.395 42.8899 86.2413 36.2795 86.3182 31.2245C86.3951 26.1695 86.3182 25.8584 86.7409 25.5084C88.027 24.5108 89.6183 24.0016 91.2375 24.0697C92.7637 24.1034 94.2621 24.4891 95.6187 25.1974C96.089 25.4616 96.5935 25.6579 97.1176 25.7806C97.1176 25.7806 100.961 16.3705 100.961 15.9428C100.469 15.3645 99.8424 14.9195 99.1378 14.6479C98.4332 14.3763 97.6728 14.2868 96.9254 14.3874ZM71.0223 30.719C70.8881 27.9403 70.0996 25.2343 68.7225 22.8264C67.3454 20.4184 65.4195 18.3783 63.1053 16.876C60.3551 15.3749 57.2953 14.5471 54.1716 14.4593C51.0479 14.3716 47.9474 15.0261 45.1191 16.3705C41.1202 18.504 38.1009 22.1308 36.7025 26.4806C35.2581 31.3505 35.2581 36.5423 36.7025 41.4123C37.4597 44.0739 38.875 46.4962 40.8147 48.4505C43.2305 50.8355 46.3456 52.3636 49.6925 52.8056C51.841 52.9874 54.0006 52.9874 56.1491 52.8056C56.9397 52.6839 57.7225 52.5151 58.4934 52.3001C61.6217 51.4147 64.436 49.6462 66.6071 47.2016C68.7782 44.757 70.2164 41.7374 70.7532 38.496C71.1369 35.9226 71.2272 33.3132 71.0223 30.719ZM55.0346 50.1614C51.1914 51.328 48.309 47.5561 47.3482 39.6236C46.9953 35.4706 46.9953 31.2946 47.3482 27.1416C48.1168 20.7645 50.0768 17.5371 53.113 17.5371C53.7255 17.4986 54.3382 17.6092 54.8999 17.8595C55.4615 18.1098 55.9558 18.4926 56.3412 18.9758C58.9162 21.5811 60.1844 26.7528 60.1844 34.5297C60.5042 38.931 59.8205 43.3479 58.186 47.4395C57.4643 48.6328 56.3476 49.5284 55.0346 49.967V50.1614ZM124.212 15.1651C123.128 15.0239 122.03 15.0239 120.945 15.1651C118.864 15.1633 116.806 15.6142 114.912 16.4872L113.72 16.9927V8.55466C113.928 5.707 113.928 2.84766 113.72 0C113.259 0 98.578 2.83859 98.3474 2.95525C98.234 3.24233 98.234 3.56251 98.3474 3.8496C98.3474 4.66618 98.3474 4.62729 100.077 5.01614C100.562 5.12632 101.029 5.30984 101.46 5.56053C102.211 6.2743 102.71 7.21639 102.882 8.24358C103.32 11.2028 103.462 14.1991 103.305 17.1871V51.328L104.343 51.5613C105.88 51.9112 110.223 52.65 111.645 52.8056C114.484 53.0341 117.337 53.0341 120.177 52.8056C123.328 52.4799 126.333 51.2902 128.865 49.3647C131.398 47.4393 133.364 44.8511 134.55 41.8789C135.258 39.9714 135.748 37.9884 136.011 35.9685C136.239 33.2323 136.149 30.4785 135.742 27.7638C135.329 24.7207 134.002 21.8796 131.939 19.6258C129.877 17.3721 127.179 15.8147 124.212 15.1651ZM114.143 49.5004C114.143 48.9949 113.759 31.9633 113.835 25.1585V19.8313L114.95 19.5591C115.702 19.4501 116.465 19.4501 117.217 19.5591C118.049 19.4735 118.886 19.6646 119.6 20.1034C121.036 21.1057 122.227 22.4242 123.086 23.9599C123.945 25.4955 124.448 27.2083 124.558 28.9692C124.838 31.8007 124.838 34.6534 124.558 37.485C124.328 41.6003 122.761 45.5236 120.1 48.6449C119.345 49.3707 118.396 49.8573 117.371 50.0448C116.596 50.1812 115.802 50.1812 115.027 50.0448C114.297 50.0448 114.297 49.8114 114.297 49.5004H114.143Z" fill="#EAF2FB"/></g> <defs data-v-66eb24b6=""><clipPath data-v-66eb24b6="" id="clip0_716_341"><rect data-v-66eb24b6="" width="200" height="53" fill="white"/></clipPath></defs></a></svg>