<svg data-v-e441ca2c="" xmlns="http://www.w3.org/2000/svg" width="124" height="80" viewBox="0 0 124 80" fill="none"><g data-v-e441ca2c="" clip-path="url(#clip0_179_284)"><path data-v-e441ca2c="" d="M1.2847 79.5486C0.042856 78.6649 -0.264809 76.4988 0.214402 74.8686C1.41709 70.7828 7.15457 71.4522 11.0666 68.4043C21.5384 60.2495 16.0097 27.7509 12.2226 18.0355C12.2226 18.0355 9.78743 11.3154 11.5626 9.15307C11.874 8.77326 12.342 8.52506 12.9927 8.36148C15.7524 7.67142 16.3416 9.50656 19.5861 19.6995C22.4334 28.6459 29.9963 52.3975 35.6406 52.3975H35.6536C38.7042 52.3749 42.1948 43.4098 44.7456 36.8645C48.3928 27.4951 51.8703 18.718 57.9472 18.7838C64.5983 18.9324 68.2139 29.7101 72.0401 41.1215C73.8823 46.6138 77.3095 56.8368 79.3401 57.1132C80.2948 56.6469 81.7157 51.8917 82.7524 48.4169C87.5557 32.3274 92.6014 24.4265 98.9952 16.362C106.217 7.25399 117.869 -2.23011 122.202 0.462447C123.605 1.33301 124.099 3.39191 123.985 4.91493C123.497 11.4 111.744 10.8416 102.508 19.6055C99.6777 22.2924 93.0638 30.5186 87.3114 49.8008C85.1708 56.9759 83.7574 61.7161 79.5508 61.9079C74.0893 62.2294 71.1842 53.5539 67.5295 42.6577C64.9918 35.0914 61.1562 23.6575 57.8409 23.5842C57.8316 23.5842 57.8223 23.5842 57.8129 23.5842C55.0309 23.5842 51.5105 32.6264 49.1778 38.6188C45.4672 48.1499 41.9598 57.1546 35.6891 57.1997H35.6443C29.6104 57.1997 24.7548 48.4489 20.2629 36.5017C21.4097 44.081 23.7964 65.4015 12.6571 74.8066C12.0231 75.3425 4.34829 81.7241 1.28657 79.5468L1.2847 79.5486Z" fill="url(#paint0_linear_179_284)"/></g> <defs data-v-e441ca2c=""><linearGradient data-v-e441ca2c="" id="paint0_linear_179_284" x1="124" y1="-1.48722e-05" x2="26" y2="80" gradientUnits="userSpaceOnUse"><stop data-v-e441ca2c="" stop-color="#29ABE2"/> <stop data-v-e441ca2c="" offset="1" stop-color="#29ABE2" stop-opacity="0"/></linearGradient> <clipPath data-v-e441ca2c="" id="clip0_179_284"><rect data-v-e441ca2c="" width="124" height="80" fill="white"/></clipPath></defs></svg>