<svg data-v-e441ca2c="" width="48" height="36" viewBox="0 0 24 18" fill="none" xmlns="http://www.w3.org/2000/svg"><path data-v-e441ca2c="" d="M10.0795 0.330518L5.90906 4.50005H1.125C0.503438 4.50005 0 5.00349 0 5.62505V12.375C0 12.9961 0.503438 13.5 1.125 13.5H5.90906L10.0795 17.6696C10.7841 18.3741 12 17.8791 12 16.8741V1.12599C12 0.120049 10.7831 -0.373075 10.0795 0.330518ZM21.6394 9.00005L23.7787 6.86067C24.0741 6.56536 24.0741 6.0863 23.7787 5.79099L22.7091 4.7213C22.4137 4.42599 21.9347 4.42599 21.6394 4.7213L19.5 6.86067L17.3606 4.7213C17.0653 4.42599 16.5863 4.42599 16.2909 4.7213L15.2213 5.79099C14.9259 6.0863 14.9259 6.56536 15.2213 6.86067L17.3606 9.00005L15.2217 11.139C14.9264 11.4343 14.9264 11.9133 15.2217 12.2086L16.2914 13.2783C16.5867 13.5736 17.0658 13.5736 17.3611 13.2783L19.5 11.1394L21.6394 13.2788C21.9347 13.5741 22.4137 13.5741 22.7091 13.2788L23.7787 12.2091C24.0741 11.9138 24.0741 11.4347 23.7787 11.1394L21.6394 9.00005Z" fill="#EAF2FB"/></svg>