<svg data-v-8d41fad4="" xmlns="http://www.w3.org/2000/svg" width="200" height="44" viewBox="0 0 200 44" fill="none"><a data-v-8d41fad4="" href="https://www.captions.ai/" target="_blank" rel="noopener"><g data-v-8d41fad4="" clip-path="url(#clip0_716_349)"><mask data-v-8d41fad4="" id="mask0_716_349" maskUnits="userSpaceOnUse" x="0" y="0" width="200" height="44" style="mask-type: luminance;"><path data-v-8d41fad4="" d="M199.109 0.452637H0V43.4526H199.109V0.452637Z" fill="white"/></mask> <g data-v-8d41fad4="" mask="url(#mask0_716_349)"><path data-v-8d41fad4="" d="M63.343 9.1536V11.9197C64.3905 10.8442 65.6423 9.99874 67.0213 9.43519C68.4004 8.87163 69.8777 8.60175 71.3626 8.64243C78.9817 8.64243 84.3927 14.1205 84.3927 21.9557C84.3927 29.7908 78.9817 35.2627 71.3626 35.2627C69.8777 35.3033 68.4004 35.0337 67.0213 34.4701C65.6423 33.9066 64.3905 33.0612 63.343 31.9857V43.4526H58.3264V9.17768L63.343 9.1536ZM63.343 21.9557C63.343 27.1209 66.5992 30.5546 71.3626 30.5546C76.126 30.5546 79.3821 27.1209 79.3821 21.9557C79.3821 16.7903 76.1731 13.3026 71.3626 13.3026C66.5521 13.3026 63.343 16.7843 63.343 21.9557Z" fill="#EAF2FB"/> <path data-v-8d41fad4="" d="M105.019 0.452637H110.03V5.56968H105.019V0.452637ZM105.019 9.1535H110.03V34.7516H105.019V9.1535Z" fill="#EAF2FB"/> <path data-v-8d41fad4="" d="M114.069 21.9555C114.069 14.1745 119.486 8.64233 127.105 8.64233C134.724 8.64233 140.136 14.1745 140.136 21.9555C140.136 29.7365 134.724 35.2625 127.105 35.2625C119.486 35.2625 114.069 29.7846 114.069 21.9555ZM135.125 21.9555C135.125 16.7842 131.916 13.3025 127.105 13.3025C122.295 13.3025 119.08 16.7842 119.08 21.9555C119.08 27.1268 122.342 30.5544 127.105 30.5544C131.868 30.5544 135.125 27.1268 135.125 21.9555Z" fill="#EAF2FB"/> <path data-v-8d41fad4="" d="M144.121 9.1537H149.132V11.4568C149.962 10.5443 150.972 9.82196 152.096 9.33691C153.218 8.85187 154.43 8.61503 155.65 8.64253C161.615 8.64253 165.659 13.0985 165.659 19.3942V34.7519H160.643V19.3942C160.643 15.7864 158.388 13.3027 154.932 13.3027C151.322 13.3027 149.115 15.8104 149.115 19.3942V34.7519H144.104L144.121 9.1537Z" fill="#EAF2FB"/> <path data-v-8d41fad4="" d="M54.3464 35.2689H41.3104C38.7304 35.27 36.208 34.4897 34.0623 33.0266C31.9167 31.5635 30.2442 29.4835 29.2563 27.0495C28.2684 24.6155 28.0097 21.9371 28.5129 19.3529C29.0159 16.7686 30.258 14.3947 32.0823 12.5317C33.9066 10.6686 36.231 9.39993 38.7616 8.8862C41.292 8.37247 43.9147 8.63694 46.298 9.64577C48.6814 10.6546 50.7183 12.3625 52.1509 14.5538C53.5835 16.7451 54.3475 19.3209 54.3464 21.9557V35.2689ZM41.3104 14.0484C40.276 14.0193 39.2464 14.2023 38.2823 14.5863C37.3184 14.9705 36.4396 15.5481 35.6979 16.2848C34.9562 17.0217 34.3666 17.9031 33.9639 18.8767C33.5614 19.8501 33.3541 20.896 33.3541 21.9528C33.3541 23.0095 33.5614 24.0555 33.9639 25.0289C34.3666 26.0024 34.9562 26.8838 35.6979 27.6206C36.4396 28.3575 37.3184 28.935 38.2823 29.3192C39.2464 29.7033 40.276 29.8861 41.3104 29.857H49.0472V21.9557C49.0456 19.86 48.2302 17.8507 46.7797 16.3683C45.3293 14.8859 43.3623 14.0517 41.3104 14.0484Z" fill="#EAF2FB"/> <path data-v-8d41fad4="" d="M19.8838 26.7419C18.5414 29.1472 16.1157 30.5544 13.0362 30.5544C8.27275 30.5544 5.0166 27.1209 5.0166 21.9555C5.0166 16.7903 8.27275 13.3025 13.0362 13.3025C16.1157 13.3025 18.5472 14.74 19.8897 17.1631H25.2833C23.5522 11.9919 18.9595 8.64233 13.0362 8.64233C5.41707 8.64233 0 14.1745 0 21.9555C0 29.7365 5.41707 35.2625 13.0362 35.2625C19.0066 35.2625 23.5757 31.9433 25.2949 26.7419H19.8838Z" fill="#EAF2FB"/> <path data-v-8d41fad4="" d="M100.597 13.8137V9.1535H92.7838V0.452637H87.7672V26.1527C87.7672 31.8351 90.5759 34.7516 96.2402 34.7516H100.603V30.0434H96.5934C94.038 30.0434 92.7838 28.7624 92.7838 26.1527V13.8137H100.597Z" fill="#EAF2FB"/> <path data-v-8d41fad4="" d="M192.062 13.0201V9.23193H190.766V8.63062H193.951V9.23193H192.685V13.0201H192.062Z" fill="#EAF2FB"/> <path data-v-8d41fad4="" d="M198.485 13.0201V9.32204L197.042 13.0201H196.666L195.217 9.32204V13.0201H194.593V8.64233H195.576L196.86 11.9977L198.155 8.64233H199.138V13.0201H198.485Z" fill="#EAF2FB"/> <path data-v-8d41fad4="" d="M169.946 29.7242L173.897 27.4933C175.192 30.0971 177.271 31.0473 180.074 31.0473C182.983 31.0473 185.214 29.8447 185.214 27.5477C185.214 22.0877 170.624 26.2247 170.624 16.303C170.624 11.745 174.568 8.40161 180.126 8.40161C184.837 8.40161 188.07 10.6325 189.683 13.6511L185.732 15.9362C184.643 13.6513 182.564 12.8574 180.226 12.8574C177.889 12.8574 175.763 14.1323 175.763 16.2008C175.763 21.5043 190.354 17.6319 190.354 27.4393C190.354 32.3761 185.686 35.503 180.28 35.503C175.558 35.503 171.918 33.5966 169.946 29.7242Z" fill="#EAF2FB"/></g></g> <defs data-v-8d41fad4=""><clipPath data-v-8d41fad4="" id="clip0_716_349"><rect data-v-8d41fad4="" width="200" height="43" fill="white" transform="translate(0 0.452637)"/></clipPath></defs></a></svg>